<svg height="512" viewBox="0 0 74 74" width="512" xmlns="http://www.w3.org/2000/svg"><g id="Icons"><path d="m52.1 46.7a18.147 18.147 0 0 1 17.6 18.139v5.793h-53.677v-5.793a18.147 18.147 0 0 1 17.596-18.139z" fill="#27ccbc"/><path d="m16.023 67.667h53.673v2.965h-53.673z" fill="#21b3a9"/><path d="m52.1 46.7h-2.7a18.147 18.147 0 0 1 17.6 18.139v5.793h2.7v-5.793a18.147 18.147 0 0 0 -17.6-18.139z" fill="#21b3a9"/><path d="m45.587 51.758-1.026 2.104h-3.362l-1.038-2.128 2.699-2.288z" fill="#fe7058"/><path d="m44.561 54.362h-3.361a.5.5 0 0 1 -.449-.281l-1.038-2.128a.5.5 0 0 1 .126-.6l2.7-2.288a.5.5 0 0 1 .646 0l2.727 2.312a.5.5 0 0 1 .126.6l-1.026 2.1a.5.5 0 0 1 -.451.285zm-3.049-1h2.737l.719-1.474-2.108-1.788-2.08 1.763z" fill="#323c6b"/><path d="m46.726 67.152-3.866 3.48-3.827-3.48 2.166-13.29h3.362z" fill="#fe7058"/><g fill="#323c6b"><path d="m42.86 71.132a.5.5 0 0 1 -.336-.13l-3.824-3.481a.5.5 0 0 1 -.157-.45l2.166-13.29a.5.5 0 0 1 .494-.419h3.362a.5.5 0 0 1 .494.419l2.166 13.29a.5.5 0 0 1 -.159.452l-3.872 3.477a.5.5 0 0 1 -.334.132zm-3.29-4.168 3.292 2.994 3.327-3-2.053-12.6h-2.512z"/><path d="m5.034 22.1-.464 1.956-.809.07 1.539-6.232.943-.081 2.587 5.876-.835.072-.811-1.849zm1.932-.782-.743-1.692c-.169-.383-.29-.735-.409-1.078h-.018c-.059.367-.126.744-.211 1.122l-.442 1.8z"/><path d="m1.7 11.153a7.583 7.583 0 0 1 .859-1.153 2.509 2.509 0 0 1 1.441-.946 1.274 1.274 0 0 1 1.136.34 1.443 1.443 0 0 1 .307 1.656l.013.012a1.566 1.566 0 0 1 1.971.084 1.638 1.638 0 0 1 .563 1.2 3.053 3.053 0 0 1 -.98 1.943 9.191 9.191 0 0 1 -.866.858zm2.373 1.077.475-.53c.554-.618.557-1.269.12-1.66-.53-.476-1.1-.259-1.629.331a3.357 3.357 0 0 0 -.423.553zm2.168 1.944a4.176 4.176 0 0 0 .466-.466c.542-.6.82-1.36.162-1.95-.617-.554-1.348-.252-1.92.386l-.433.483z"/><path d="m15.778 20.136a3.894 3.894 0 0 1 -1.487.668 2.84 2.84 0 0 1 -3.658-2.256 3.024 3.024 0 0 1 2.306-3.865 3.255 3.255 0 0 1 1.461-.083l-.029.667a2.851 2.851 0 0 0 -1.251.052 2.259 2.259 0 0 0 -1.694 3.006 2.209 2.209 0 0 0 2.857 1.805 3.143 3.143 0 0 0 1.181-.555z"/><path d="m10.172 7.881a11.21 11.21 0 0 1 .922-1.4 3.479 3.479 0 0 1 2.106-1.481 2.8 2.8 0 0 1 2.249.66 3.214 3.214 0 0 1 1.332 2.14 3.744 3.744 0 0 1 -.955 2.659 12.65 12.65 0 0 1 -.93 1.082zm4.728 2.673a4.96 4.96 0 0 0 .522-.6 2.336 2.336 0 0 0 -.452-3.625 2.168 2.168 0 0 0 -3.361.509 4.452 4.452 0 0 0 -.5.776z"/><path d="m18.273 12.885 1.713-2.785.561.345-1.3 2.12 1.721 1.058 1.2-1.959.553.34-1.2 1.959 2.339 1.437-.411.668z"/><path d="m23.657 22.058a5.659 5.659 0 0 1 -1.5 1.164 3.125 3.125 0 0 1 -2.384.348 3.126 3.126 0 0 1 -1.8-1.608 3.048 3.048 0 0 1 1.452-4.309 3.756 3.756 0 0 1 1.47-.458l.13.655a3.149 3.149 0 0 0 -1.311.394 2.272 2.272 0 0 0 -1.025 3.3 2.227 2.227 0 0 0 3.216 1.079 2.558 2.558 0 0 0 .85-.631l-.844-1.6-1.093.575-.294-.558 1.771-.932z"/><path d="m23.466 47.106a.5.5 0 0 1 -.245-.937l.474-.258a.54.54 0 0 1 .716.182.463.463 0 0 1 -.164.656l-.539.293a.5.5 0 0 1 -.242.064z"/><path d="m14.828 56.75a.493.493 0 0 1 -.2-.043.5.5 0 0 1 -.255-.659 21.577 21.577 0 0 1 6.627-8.402.5.5 0 0 1 .606.795 20.586 20.586 0 0 0 -6.321 8.011.5.5 0 0 1 -.457.298z"/><path d="m46.875 1.711a.489.489 0 0 1 -.131-.018 5.846 5.846 0 0 0 -.768-.137.5.5 0 0 1 .13-.991 6.836 6.836 0 0 1 .9.163.5.5 0 0 1 -.13.982z"/><path d="m55.083 6.284a.5.5 0 0 1 -.3-.1 7.1 7.1 0 0 0 -3.65-1.384.5.5 0 0 1 -.376-.225 6.881 6.881 0 0 0 -2.257-2.135.5.5 0 0 1 .5-.86 7.935 7.935 0 0 1 2.454 2.246 8.092 8.092 0 0 1 3.925 1.558.5.5 0 0 1 -.3.9z"/><path d="m69.7 71.132h-53.677a.5.5 0 0 1 -.5-.5v-5.793a18.554 18.554 0 0 1 18.077-18.639h18.51a18.554 18.554 0 0 1 18.09 18.639v5.793a.5.5 0 0 1 -.5.5zm-53.173-1h52.673v-5.293a17.558 17.558 0 0 0 -17.107-17.639h-18.473a17.555 17.555 0 0 0 -17.1 17.639z"/></g><path d="m60.337 65.792h-9a.691.691 0 0 1 0-1.383h9a.691.691 0 0 1 0 1.383z" fill="#fff"/><path d="m63.767 65.792h-.82a.691.691 0 1 1 0-1.383h.82a.691.691 0 0 1 0 1.383z" fill="#fff"/><path d="m33.621 46.75 2.734-2.895 6.505 5.591-5.485 4.65z" fill="#eeefee"/><path d="m37.375 54.6a.515.515 0 0 1 -.1-.01.5.5 0 0 1 -.347-.263l-3.753-7.346a.5.5 0 0 1 .082-.571l2.734-2.9a.5.5 0 0 1 .689-.036l6.5 5.591a.5.5 0 0 1 0 .761l-5.48 4.651a.5.5 0 0 1 -.325.123zm-3.147-7.759 3.306 6.469 4.557-3.863-5.7-4.9z" fill="#323c6b"/><path d="m52.099 46.75-2.734-2.895-6.505 5.591 5.485 4.65z" fill="#eeefee"/><path d="m48.345 54.6a.5.5 0 0 1 -.323-.119l-5.485-4.65a.5.5 0 0 1 0-.761l6.5-5.591a.5.5 0 0 1 .689.036l2.734 2.9a.5.5 0 0 1 .082.571l-3.753 7.346a.5.5 0 0 1 -.347.263.515.515 0 0 1 -.097.005zm-4.715-5.157 4.557 3.863 3.306-6.469-2.164-2.292z" fill="#323c6b"/><path d="m49.365 43.855-6.505 5.591-6.505-5.591z" fill="#fcd462"/><path d="m42.86 49.946a.5.5 0 0 1 -.326-.121l-6.5-5.591a.5.5 0 0 1 .326-.879h13.01a.5.5 0 0 1 .326.879l-6.5 5.591a.5.5 0 0 1 -.336.121zm-5.16-5.592 5.156 4.432 5.156-4.432z" fill="#323c6b"/><path d="m55.814 35.039a3.562 3.562 0 0 0 3.47-3.668c0-2.026-1.157-3.655-3.091-3.655" fill="#fcd462"/><path d="m55.814 35.54a.5.5 0 0 1 0-1 3.078 3.078 0 0 0 2.97-3.168c0-1.57-.8-3.155-2.591-3.155a.5.5 0 0 1 0-1c2.114 0 3.591 1.708 3.591 4.155a4.078 4.078 0 0 1 -3.97 4.168z" fill="#323c6b"/><path d="m29.661 35.039a3.371 3.371 0 0 1 -3.226-3.668c0-2.026 1.157-3.655 3.091-3.655" fill="#fcd462"/><path d="m29.662 35.54a3.879 3.879 0 0 1 -3.727-4.168c0-2.446 1.477-4.155 3.591-4.155a.5.5 0 0 1 0 1c-1.79 0-2.591 1.584-2.591 3.155a2.874 2.874 0 0 0 2.727 3.168.5.5 0 0 1 0 1z" fill="#323c6b"/><path d="m56.19 27.72a.01.01 0 0 1 .01-.01v4.06c0 7.12-5.37 13.39-12.49 13.81a13.315 13.315 0 0 1 -14.16-13.29v-4.99c.98-4.58 2.66-9 7.91-10.58a4.883 4.883 0 0 0 4.89 3.81 5.018 5.018 0 0 0 4.59-2.97 3.572 3.572 0 0 0 3.7 3.04 4.32 4.32 0 0 0 2.37-.74c.58.29 3.19 2.54 3.19 7.44 0 .13-.01.27-.01.42z" fill="#fcd462"/><path d="m56.2 27.3c0-4.9-2.61-7.15-3.19-7.44a4.57 4.57 0 0 1 -1.376.6 9.521 9.521 0 0 1 2.441 6.84c0 .13-.01.27-.01.42a.01.01 0 0 1 .01-.01v4.06c0 7.034-5.245 13.228-12.236 13.782a13.488 13.488 0 0 0 1.871.028c7.12-.42 12.49-6.69 12.49-13.81v-4.06a.01.01 0 0 0 -.01.01c0-.15.01-.29.01-.42z" fill="#f7be56"/><path d="m57.38 20.01c.61 2.94.39 5.55-1.18 7.7v-.41c0-4.9-2.61-7.15-3.19-7.44a4.32 4.32 0 0 1 -2.37.74 3.572 3.572 0 0 1 -3.7-3.04 5.018 5.018 0 0 1 -4.59 2.97 4.883 4.883 0 0 1 -4.89-3.81c-5.25 1.58-6.93 6-7.91 10.58l-.09.42c-3.92-9.27 1.11-14.23 2.15-15.04a11.509 11.509 0 0 1 1.4-1.04 5.072 5.072 0 0 1 -.32-1.79c0-2.44 2.37-4.37 5.34-4.37a5.922 5.922 0 0 1 2.84.9 4.426 4.426 0 0 1 4-2.44 4.355 4.355 0 0 1 4.37 3.48 6.047 6.047 0 0 1 1.26-.15 4.283 4.283 0 0 1 4.44 4 3.063 3.063 0 0 1 2.89 2.97 3.07 3.07 0 0 1 -1.85 2.73 2.663 2.663 0 0 0 1.26-.29 3.772 3.772 0 0 0 2.37-2.96 2.419 2.419 0 0 1 .66 1.04c.75 1.77-.96 4.36-2.89 5.25z" fill="#707583"/><path d="m36.671 7.383a5.922 5.922 0 0 1 2.84.9 4.426 4.426 0 0 1 4-2.44 4.355 4.355 0 0 1 4.37 3.48 6.047 6.047 0 0 1 1.26-.15 4.283 4.283 0 0 1 4.44 4 3.063 3.063 0 0 1 2.89 2.97 2.736 2.736 0 0 1 -.072.592 3 3 0 0 0 1.431-2.495 3.063 3.063 0 0 0 -2.89-2.97 4.283 4.283 0 0 0 -4.44-4 6.047 6.047 0 0 0 -1.26.15 4.355 4.355 0 0 0 -4.37-3.48 4.426 4.426 0 0 0 -4 2.44 5.922 5.922 0 0 0 -2.84-.9 5.24 5.24 0 0 0 -5.107 3.149 5.984 5.984 0 0 1 3.748-1.246z" fill="#62667c"/><path d="m60.27 14.76a2.419 2.419 0 0 0 -.66-1.04 3.667 3.667 0 0 1 -1.135 2.17 2.219 2.219 0 0 1 .436.773 3.057 3.057 0 0 1 -.162 2.4c1.261-1.184 2.084-2.974 1.521-4.303z" fill="#62667c"/><path d="m39.54 33.85h-4.8a1.45 1.45 0 0 1 -1.449-1.393l-.14-3.544a1.45 1.45 0 0 1 1.449-1.513h5.579a1.45 1.45 0 0 1 1.427 1.709l-.642 3.544a1.45 1.45 0 0 1 -1.424 1.197z" fill="#89c5cd"/><path d="m39.54 34.35h-4.8a1.945 1.945 0 0 1 -1.949-1.873l-.14-3.545a1.95 1.95 0 0 1 1.949-2.032h5.579a1.951 1.951 0 0 1 1.921 2.3l-.642 3.544a1.949 1.949 0 0 1 -1.918 1.606zm-4.94-6.45a.951.951 0 0 0 -.95.988l.14 3.545a.948.948 0 0 0 .95.912h4.8a.949.949 0 0 0 .935-.781l.642-3.544a.95.95 0 0 0 -.935-1.12z" fill="#323c6b"/><path d="m33.083 29.386a.5.5 0 0 1 -.185-.035l-3.421-1.358a.5.5 0 1 1 .369-.93l3.421 1.358a.5.5 0 0 1 -.185.965z" fill="#323c6b"/><path d="m46.216 33.85h4.8a1.45 1.45 0 0 0 1.449-1.393l.14-3.544a1.45 1.45 0 0 0 -1.452-1.513h-5.579a1.45 1.45 0 0 0 -1.427 1.709l.642 3.544a1.45 1.45 0 0 0 1.427 1.197z" fill="#89c5cd"/><path d="m51.013 34.35h-4.8a1.949 1.949 0 0 1 -1.919-1.6l-.639-3.55a1.951 1.951 0 0 1 1.919-2.3h5.579a1.951 1.951 0 0 1 1.947 2.033l-.14 3.544a1.945 1.945 0 0 1 -1.947 1.873zm-5.439-6.45a.95.95 0 0 0 -.935 1.12l.642 3.543a.949.949 0 0 0 .935.781h4.8a.948.948 0 0 0 .95-.913l.14-3.544a.951.951 0 0 0 -.95-.988z" fill="#323c6b"/><path d="m52.673 29.386a.5.5 0 0 1 -.185-.965l3.421-1.358a.5.5 0 1 1 .369.93l-3.421 1.358a.5.5 0 0 1 -.184.035z" fill="#323c6b"/><path d="m44.186 29.951a.5.5 0 0 1 -.459-.3.923.923 0 0 0 -1.7 0 .5.5 0 0 1 -.919-.395 1.923 1.923 0 0 1 3.535 0 .5.5 0 0 1 -.459.7z" fill="#323c6b"/><path d="m29.46 28.22a.5.5 0 0 1 -.46-.305c-4.352-10.29 2.029-15.415 2.3-15.629a10.228 10.228 0 0 1 1.1-.844 6.42 6.42 0 0 1 -.21-1.592c0-2.731 2.565-4.87 5.84-4.87a5.69 5.69 0 0 1 2.637.729 5.008 5.008 0 0 1 4.2-2.27 4.894 4.894 0 0 1 4.754 3.4 5.775 5.775 0 0 1 .876-.07 4.812 4.812 0 0 1 4.907 4.063 3.528 3.528 0 0 1 2.926 3.408 3.29 3.29 0 0 1 -.307 1.385 3.154 3.154 0 0 0 1.09-1.969.5.5 0 0 1 .85-.29 2.927 2.927 0 0 1 .784 1.245c.809 1.9-.82 4.553-2.8 5.672.586 3.159.146 5.688-1.339 7.722a.5.5 0 0 1 -.9-.295v-.41c0-4.1-1.9-6.253-2.694-6.851a4.759 4.759 0 0 1 -2.366.651 4.191 4.191 0 0 1 -3.85-2.293 5.6 5.6 0 0 1 -4.44 2.223 5.411 5.411 0 0 1 -5.258-3.668c-4.66 1.647-6.155 5.79-7.066 10.042l-.09.421a.5.5 0 0 1 -.442.392zm8.57-22.24c-2.714 0-4.84 1.7-4.84 3.87a4.632 4.632 0 0 0 .273 1.579.5.5 0 0 1 -.171.625l-.244.164a9.5 9.5 0 0 0 -1.112.843c-.252.2-5.449 4.375-2.6 12.929 1.021-4.1 2.909-8.222 7.977-9.748a.5.5 0 0 1 .636.388 4.413 4.413 0 0 0 4.4 3.4 4.534 4.534 0 0 0 4.131-2.669.5.5 0 0 1 .955.137 3.089 3.089 0 0 0 3.2 2.6 3.829 3.829 0 0 0 2.1-.658.5.5 0 0 1 .5-.029c.663.332 2.966 2.338 3.4 6.505a9.916 9.916 0 0 0 .26-5.807.5.5 0 0 1 .28-.556c1.692-.78 3.274-3.1 2.639-4.6-.006-.02-.013-.04-.02-.059a4.365 4.365 0 0 1 -2.367 2.25 3.1 3.1 0 0 1 -1.443.324.5.5 0 0 1 -.213-.952 2.566 2.566 0 0 0 1.559-2.276 2.567 2.567 0 0 0 -2.436-2.472.5.5 0 0 1 -.454-.482 3.784 3.784 0 0 0 -3.94-3.516 5.447 5.447 0 0 0 -1.154.139.5.5 0 0 1 -.6-.412 3.879 3.879 0 0 0 -3.876-3.057 3.935 3.935 0 0 0 -3.547 2.152.5.5 0 0 1 -.3.263.5.5 0 0 1 -.394-.034 5.414 5.414 0 0 0 -2.599-.841z" fill="#323c6b"/><path d="m42.85 46.107a13.68 13.68 0 0 1 -9.444-3.746 13.874 13.874 0 0 1 -4.356-10.071v-4.99a.5.5 0 0 1 .011-.1c.958-4.477 2.688-9.279 8.255-10.955a.5.5 0 0 1 .636.388 4.413 4.413 0 0 0 4.4 3.4 4.534 4.534 0 0 0 4.131-2.669.5.5 0 0 1 .955.137 3.089 3.089 0 0 0 3.2 2.6 3.829 3.829 0 0 0 2.1-.658.5.5 0 0 1 .5-.029c.732.366 3.467 2.778 3.467 7.887l-.008.321a.532.532 0 0 1 .008.089v4.06a14.093 14.093 0 0 1 -12.966 14.308q-.447.028-.889.028zm-12.8-18.754v4.937a12.816 12.816 0 0 0 13.629 12.791 13.093 13.093 0 0 0 12.021-13.311v-3.949a.493.493 0 0 1 -.01-.1v-.021l.01-.4c0-4.1-1.9-6.253-2.694-6.851a4.759 4.759 0 0 1 -2.366.651 4.191 4.191 0 0 1 -3.85-2.293 5.6 5.6 0 0 1 -4.44 2.223 5.411 5.411 0 0 1 -5.25-3.668c-4.636 1.638-6.139 5.756-7.05 9.991z" fill="#323c6b"/></g></svg>